# Blender 4.0.0
# www.blender.org
mtllib largebuilding2.mtl
o Building_steepleTop_lambert1_0
v 14.999998 165.000031 15.000003
v 15.000000 165.000031 0.000000
v 15.000000 180.000031 0.000000
v -15.000000 165.000031 15.000003
v -15.000000 180.000031 0.000000
v -15.000000 165.000031 0.000000
v 0.000000 180.000031 -15.000003
v 0.000000 165.000031 -15.000003
v -14.999998 165.000031 -15.000003
v -0.000000 180.000031 15.000003
v -0.000000 165.000031 15.000003
v 14.999998 165.000031 15.000003
v 15.000000 165.000031 -15.000003
v -15.000000 165.000031 0.000000
v -15.000000 180.000031 0.000000
v -14.999998 165.000031 -15.000003
v -15.000000 165.000031 15.000003
v 15.000000 165.000031 -15.000003
v 0.000000 165.000031 -15.000003
v 0.000000 180.000031 -15.000003
v 14.999998 165.000031 15.000003
v 0.000000 190.000031 0.000000
v -0.000000 180.000031 15.000003
v 15.000000 180.000031 0.000000
v 0.000000 190.000031 0.000000
v 14.999998 165.000031 15.000003
v -15.000000 165.000031 15.000003
v 0.000000 190.000031 0.000000
v -15.000000 180.000031 0.000000
v -0.000000 180.000031 15.000003
v 0.000000 190.000031 0.000000
v -15.000000 165.000031 15.000003
v 15.000000 165.000031 -15.000003
v 0.000000 190.000031 0.000000
v 15.000000 180.000031 0.000000
v 0.000000 180.000031 -15.000003
v 0.000000 190.000031 0.000000
v 15.000000 165.000031 -15.000003
v -14.999998 165.000031 -15.000003
v 0.000000 190.000031 0.000000
v 0.000000 180.000031 -15.000003
v -15.000000 180.000031 0.000000
v 0.000000 190.000031 0.000000
v -14.999998 165.000031 -15.000003
v 15.000000 150.000031 15.000003
v 15.000000 150.000031 0.000000
v 0.000000 165.000031 -15.000003
v 0.000000 150.000031 -15.000003
v -15.000000 150.000031 -15.000003
v -14.999998 165.000031 -15.000003
v -15.000000 165.000031 15.000003
v -15.000000 165.000031 0.000000
v -15.000000 150.000031 0.000000
v -15.000000 150.000031 15.000003
v -0.000000 165.000031 15.000003
v -0.000000 150.000031 15.000003
v 15.000000 150.000031 15.000003
v 14.999998 165.000031 15.000003
v 15.000000 150.000031 -15.000003
v -15.000000 150.000031 0.000000
v -15.000000 165.000031 0.000000
v -14.999998 165.000031 -15.000003
v -15.000000 150.000031 -15.000003
v -15.000000 150.000031 15.000003
v -15.000000 165.000031 15.000003
v 15.000000 150.000031 -15.000003
v 0.000000 150.000031 -15.000003
v 0.000000 165.000031 -15.000003
v 15.000000 165.000031 -15.000003
v 15.000000 135.000015 -15.000003
v -0.000000 135.000015 -15.000003
v 0.000000 150.000031 -15.000003
v 15.000000 150.000031 -15.000003
v 15.000000 150.000031 15.000003
v -0.000000 150.000031 15.000003
v 0.000000 135.000015 15.000003
v 15.000000 135.000015 15.000003
v -15.000000 150.000031 0.000000
v -15.000000 135.000015 0.000000
v -15.000000 135.000015 15.000003
v -15.000000 150.000031 15.000003
v 15.000000 150.000031 0.000000
v 15.000000 135.000015 0.000000
v 15.000000 135.000015 -15.000003
v 15.000000 150.000031 -15.000003
v 15.000000 120.000023 -15.000003
v -0.000000 120.000023 -15.000003
v -15.000000 135.000015 0.000000
v -15.000000 120.000023 0.000000
v -15.000000 120.000023 15.000003
v -15.000000 135.000015 15.000003
v 15.000000 135.000015 15.000003
v 0.000000 135.000015 15.000003
v 0.000000 120.000023 15.000003
v 15.000000 120.000023 15.000003
v 15.000000 135.000015 0.000000
v 15.000000 120.000023 0.000000
v 15.000000 120.000023 -15.000003
v 15.000000 135.000015 -15.000003
v -15.000000 120.000023 -15.000003
v -15.000000 135.000015 -15.000003
v -15.000000 150.000031 -15.000003
v 0.000000 135.000015 15.000003
v -0.000000 150.000031 15.000003
v -15.000000 150.000031 15.000003
v -15.000000 135.000015 15.000003
v 0.000000 120.000023 15.000003
v 0.000000 135.000015 15.000003
v -15.000000 135.000015 15.000003
v -15.000000 120.000023 15.000003
v 15.000000 135.000015 15.000003
v 15.000000 150.000031 15.000003
v 15.000000 120.000023 15.000003
v 15.000000 135.000015 15.000003
v -15.000000 135.000015 -15.000003
v -15.000000 135.000015 0.000000
v -15.000000 150.000031 0.000000
v -15.000000 150.000031 -15.000003
v -15.000000 120.000023 -15.000003
v -15.000000 120.000023 0.000000
v -15.000000 135.000015 0.000000
v -15.000000 135.000015 -15.000003
v -15.000000 105.000015 -15.000003
v -15.000000 105.000015 0.000000
v -15.000000 120.000023 0.000000
v -15.000000 120.000023 -15.000003
v 15.000000 120.000023 -15.000003
v 15.000000 120.000023 0.000000
v 15.000000 105.000015 0.000000
v 15.000000 105.000015 -15.000003
v 0.000000 120.000023 15.000003
v 0.000000 105.000015 15.000003
v 15.000000 105.000015 15.000003
v 15.000000 120.000023 15.000003
v -0.000000 120.000023 -15.000003
v -0.000000 105.000015 -15.000003
v -15.000000 105.000015 -15.000003
v -15.000000 120.000023 -15.000003
v -15.000000 90.000015 -15.000003
v -15.000000 90.000015 0.000000
v 0.000000 105.000015 15.000003
v 0.000000 90.000015 15.000003
v 15.000000 90.000015 15.000003
v 15.000000 105.000015 15.000003
v 15.000000 105.000015 -15.000003
v 15.000000 105.000015 0.000000
v 15.000000 90.000015 0.000000
v 15.000000 90.000015 -15.000003
v -0.000000 105.000015 -15.000003
v -0.000000 90.000015 -15.000003
v -15.000000 90.000015 -15.000003
v -15.000000 105.000015 -15.000003
v -15.000000 90.000015 15.000003
v -15.000000 105.000015 15.000003
v -15.000000 120.000023 15.000003
v 15.000000 105.000015 0.000000
v 15.000000 120.000023 0.000000
v 15.000000 120.000023 15.000003
v 15.000000 105.000015 15.000003
v 15.000000 90.000015 0.000000
v 15.000000 105.000015 0.000000
v 15.000000 105.000015 15.000003
v 15.000000 90.000015 15.000003
v 15.000000 105.000015 -15.000003
v 15.000000 120.000023 -15.000003
v 15.000000 90.000015 -15.000003
v 15.000000 105.000015 -15.000003
v -15.000000 105.000015 15.000003
v 0.000000 105.000015 15.000003
v 0.000000 120.000023 15.000003
v -15.000000 120.000023 15.000003
v -15.000000 90.000015 15.000003
v 0.000000 90.000015 15.000003
v 0.000000 105.000015 15.000003
v -15.000000 105.000015 15.000003
v -15.000000 75.000023 15.000003
v 0.000000 75.000023 15.000003
v 0.000000 90.000015 15.000003
v -15.000000 90.000015 15.000003
v -15.000000 90.000015 -15.000003
v -0.000000 90.000015 -15.000003
v 0.000000 75.000023 -15.000003
v -15.000000 75.000023 -15.000003
v 15.000000 90.000015 0.000000
v 15.000000 75.000023 0.000000
v 15.000000 75.000023 -15.000003
v 15.000000 90.000015 -15.000003
v -15.000000 90.000015 0.000000
v -15.000000 75.000023 0.000000
v -15.000000 75.000023 15.000003
v -15.000000 90.000015 15.000003
v -15.000000 60.000011 15.000003
v -0.000000 60.000011 15.000003
v 15.000000 75.000023 0.000000
v 15.000000 60.000011 0.000000
v 15.000000 60.000011 -15.000003
v 15.000000 75.000023 -15.000003
v -15.000000 75.000023 -15.000003
v 0.000000 75.000023 -15.000003
v 0.000000 60.000011 -15.000003
v -15.000000 60.000011 -15.000003
v -15.000000 75.000023 0.000000
v -15.000000 60.000011 0.000000
v -15.000000 60.000011 15.000003
v -15.000000 75.000023 15.000003
v 15.000000 60.000011 15.000003
v 15.000000 75.000023 15.000003
v 15.000000 90.000015 15.000003
v 0.000000 75.000023 -15.000003
v -0.000000 90.000015 -15.000003
v 15.000000 90.000015 -15.000003
v 15.000000 75.000023 -15.000003
v 0.000000 60.000011 -15.000003
v 0.000000 75.000023 -15.000003
v 15.000000 75.000023 -15.000003
v 15.000000 60.000011 -15.000003
v -15.000000 75.000023 -15.000003
v -15.000000 90.000015 -15.000003
v -15.000000 60.000011 -15.000003
v -15.000000 75.000023 -15.000003
v 15.000000 75.000023 15.000003
v 15.000000 75.000023 0.000000
v 15.000000 90.000015 0.000000
v 15.000000 90.000015 15.000003
v 15.000000 60.000011 15.000003
v 15.000000 60.000011 0.000000
v 15.000000 75.000023 0.000000
v 15.000000 75.000023 15.000003
v 15.000000 45.000004 15.000003
v 15.000000 45.000004 0.000000
v 15.000000 60.000011 0.000000
v 15.000000 60.000011 15.000003
v 0.000000 60.000011 -15.000003
v 0.000000 45.000004 -15.000003
v -15.000000 45.000004 -15.000003
v -15.000000 60.000011 -15.000003
v -15.000000 60.000011 15.000003
v -15.000000 60.000011 0.000000
v -15.000000 45.000004 0.000000
v -15.000000 45.000004 15.000003
v -0.000000 60.000011 15.000003
v -0.000000 45.000004 15.000003
v 15.000000 45.000004 15.000003
v 15.000000 60.000011 15.000003
v 15.000000 45.000004 -15.000003
v 15.000000 60.000011 -15.000003
v -15.000000 45.000004 0.000000
v -15.000000 60.000011 0.000000
v -15.000000 60.000011 -15.000003
v -15.000000 45.000004 -15.000003
v -15.000000 45.000004 15.000003
v -15.000000 60.000011 15.000003
v 15.000000 45.000004 -15.000003
v 0.000000 45.000004 -15.000003
v 0.000000 60.000011 -15.000003
v 15.000000 60.000011 -15.000003
v 15.000000 30.000000 -15.000003
v -0.000000 30.000000 -15.000003
v 0.000000 45.000004 -15.000003
v 15.000000 45.000004 -15.000003
v 15.000000 45.000004 15.000003
v -0.000000 45.000004 15.000003
v 0.000000 30.000000 15.000003
v 15.000000 30.000000 15.000003
v -15.000000 45.000004 0.000000
v -15.000000 30.000000 0.000000
v -15.000000 30.000000 15.000003
v -15.000000 45.000004 15.000003
v 15.000000 45.000004 0.000000
v 15.000000 30.000000 0.000000
v 15.000000 30.000000 -15.000003
v 15.000000 45.000004 -15.000003
v 15.000000 14.999997 -15.000003
v -0.000000 14.999997 -15.000003
v -15.000000 30.000000 0.000000
v -15.000000 14.999997 0.000000
v -15.000000 14.999997 15.000003
v -15.000000 30.000000 15.000003
v 15.000000 30.000000 15.000003
v 0.000000 30.000000 15.000003
v 0.000000 14.999997 15.000003
v 15.000000 14.999997 15.000003
v 15.000000 30.000000 0.000000
v 15.000000 14.999997 0.000000
v 15.000000 14.999997 -15.000003
v 15.000000 30.000000 -15.000003
v -15.000000 14.999997 -15.000003
v -15.000000 30.000000 -15.000003
v -15.000000 45.000004 -15.000003
v 0.000000 30.000000 15.000003
v -0.000000 45.000004 15.000003
v -15.000000 45.000004 15.000003
v -15.000000 30.000000 15.000003
v 0.000000 14.999997 15.000003
v 0.000000 30.000000 15.000003
v -15.000000 30.000000 15.000003
v -15.000000 14.999997 15.000003
v 15.000000 30.000000 15.000003
v 15.000000 45.000004 15.000003
v 15.000000 14.999997 15.000003
v 15.000000 30.000000 15.000003
v -15.000000 30.000000 -15.000003
v -15.000000 30.000000 0.000000
v -15.000000 45.000004 0.000000
v -15.000000 45.000004 -15.000003
v -15.000000 14.999997 -15.000003
v -15.000000 14.999997 0.000000
v -15.000000 30.000000 0.000000
v -15.000000 30.000000 -15.000003
v -15.000000 -0.000005 -15.000003
v -15.000000 -0.000005 0.000000
v -15.000000 14.999997 0.000000
v -15.000000 14.999997 -15.000003
v 15.000000 14.999997 -15.000003
v 15.000000 14.999997 0.000000
v 15.000000 -0.000005 0.000000
v 15.000000 -0.000005 -15.000003
v 0.000000 14.999997 15.000003
v 0.000000 -0.000005 15.000003
v 15.000000 -0.000005 15.000003
v 15.000000 14.999997 15.000003
v -0.000000 14.999997 -15.000003
v -0.000000 -0.000005 -15.000003
v -15.000000 -0.000005 -15.000003
v -15.000000 14.999997 -15.000003
v -15.000000 -0.000005 15.000003
v -15.000000 14.999997 15.000003
v 15.000000 -0.000005 0.000000
v 15.000000 14.999997 0.000000
v 15.000000 14.999997 15.000003
v 15.000000 -0.000005 15.000003
v 15.000000 -0.000005 -15.000003
v 15.000000 14.999997 -15.000003
v -15.000000 -0.000005 15.000003
v 0.000000 -0.000005 15.000003
v 0.000000 14.999997 15.000003
v -15.000000 14.999997 15.000003
vn 1.0000 -0.0000 -0.0000
vn -1.0000 -0.0000 -0.0000
vn -0.0000 -0.0000 -1.0000
vn -0.0000 -0.0000 1.0000
vn 0.6396 0.6396 0.4264
vn 0.4264 0.6396 0.6396
vn -0.4264 0.6396 0.6396
vn -0.6396 0.6396 0.4264
vn 0.4264 0.6396 -0.6396
vn 0.6396 0.6396 -0.4264
vn -0.6396 0.6396 -0.4264
vn -0.4264 0.6396 -0.6396
vt 0.000003 0.374999
vt 0.375000 0.375000
vt 0.375000 0.000000
vt 0.749985 0.375016
vt 0.375000 0.000000
vt 0.375000 0.375000
vt 0.000000 0.375000
vt 0.000000 0.750000
vt 0.374997 0.750013
vt 0.375000 0.750000
vt 0.750000 0.750005
vt 0.750006 0.375015
vt 0.750000 0.750000
vt 0.750000 0.375000
vt 0.375004 0.750005
vt 0.000000 0.749992
vt 0.375000 0.749992
vt 0.750000 0.750000
vt 0.750000 0.375000
vt 0.535246 0.330620
vt 0.664240 0.685977
vt 0.631848 0.329465
vt 0.592207 0.329660
vt 0.559979 0.686502
vt 0.688809 0.329825
vt 0.535246 0.330620
vt 0.664240 0.685977
vt 0.631848 0.329465
vt 0.000000 0.000000
vt 0.374997 0.000026
vt 0.375000 0.375001
vt 0.000000 0.375000
vt 0.000000 0.750000
vt 0.375000 0.750000
vt 0.749989 0.000026
vt 0.375000 0.375000
vt 0.375000 -0.000000
vt -0.000001 0.000017
vt 0.000000 0.375000
vt -0.000006 0.000026
vt 0.750000 0.375000
vt 0.750000 0.000000
vt 0.374996 0.000011
vt 0.750000 0.000000
vt 0.750000 0.375000
vt 0.375000 0.375000
vt 0.750000 0.000000
vt 0.375000 0.375000
vt 0.375000 0.750000
vt 0.000000 -0.000000
vt 0.375000 0.000000
vt 0.375000 0.375000
vt 0.000000 0.375000
vt 0.000000 0.750000
vt 0.375000 0.750000
vt 0.750000 0.750000
vt 0.750000 0.375000
vt 0.375000 0.375000
vt 0.375000 0.750000
vt 0.375000 0.000000
vt 0.375000 0.375000
vt 0.375000 0.375000
vt 0.375000 -0.000000
vt 0.000000 0.000000
vt 0.000000 0.375000
s 0
usemtl lambert1
f 1/1/1 2/2/1 3/3/1
f 4/4/2 5/5/2 6/6/2
f 7/7/3 8/8/3 9/9/3
f 10/2/4 11/10/4 12/11/4
f 3/3/1 2/2/1 13/12/1
f 14/13/2 15/14/2 16/15/2
f 17/16/4 11/10/4 10/2/4
f 18/17/3 19/18/3 20/19/3
f 21/20/5 22/21/5 23/22/5
f 24/23/6 25/24/6 26/25/6
f 27/26/7 28/27/7 29/28/7
f 30/23/8 31/24/8 32/25/8
f 33/20/9 34/21/9 35/22/9
f 36/23/10 37/24/10 38/25/10
f 39/20/11 40/21/11 41/22/11
f 42/23/12 43/24/12 44/25/12
f 45/8/1 46/10/1 2/2/1
f 45/8/1 2/2/1 1/1/1
f 47/29/3 48/7/3 49/2/3
f 47/29/3 49/2/3 50/30/3
f 51/31/2 52/32/2 53/33/2
f 51/31/2 53/33/2 54/34/2
f 55/3/4 56/2/4 57/19/4
f 55/3/4 57/19/4 58/35/4
f 2/2/1 46/10/1 59/18/1
f 2/2/1 59/18/1 13/12/1
f 60/36/2 61/37/2 62/38/2
f 60/36/2 62/38/2 63/39/2
f 64/7/4 56/2/4 55/3/4
f 64/7/4 55/3/4 65/40/4
f 66/36/3 67/41/3 68/42/3
f 66/36/3 68/42/3 69/43/3
f 70/7/3 71/2/3 72/3/3
f 70/7/3 72/3/3 73/29/3
f 74/44/4 75/5/4 76/6/4
f 74/44/4 76/6/4 77/45/4
f 78/7/2 79/8/2 80/10/2
f 78/7/2 80/10/2 81/2/2
f 82/2/1 83/10/1 84/18/1
f 82/2/1 84/18/1 85/19/1
f 86/8/3 87/10/3 71/2/3
f 86/8/3 71/2/3 70/7/3
f 88/29/2 89/7/2 90/2/2
f 88/29/2 90/2/2 91/3/2
f 92/46/4 93/32/4 94/33/4
f 92/46/4 94/33/4 95/34/4
f 96/3/1 97/2/1 98/19/1
f 96/3/1 98/19/1 99/47/1
f 71/2/3 87/10/3 100/18/3
f 71/2/3 100/18/3 101/19/3
f 72/3/3 71/2/3 101/19/3
f 72/3/3 101/19/3 102/47/3
f 103/13/4 104/14/4 105/48/4
f 103/13/4 105/48/4 106/49/4
f 107/36/4 108/37/4 109/50/4
f 107/36/4 109/50/4 110/39/4
f 111/8/1 83/10/1 82/2/1
f 111/8/1 82/2/1 112/7/1
f 113/7/1 97/2/1 96/3/1
f 113/7/1 96/3/1 114/29/1
f 115/10/2 116/18/2 117/19/2
f 115/10/2 117/19/2 118/2/2
f 119/36/2 120/41/2 121/42/2
f 119/36/2 121/42/2 122/51/2
f 123/7/2 124/2/2 125/3/2
f 123/7/2 125/3/2 126/29/2
f 127/44/1 128/5/1 129/6/1
f 127/44/1 129/6/1 130/45/1
f 131/7/4 132/8/4 133/10/4
f 131/7/4 133/10/4 134/2/4
f 135/2/3 136/10/3 137/18/3
f 135/2/3 137/18/3 138/19/3
f 139/8/2 140/10/2 124/2/2
f 139/8/2 124/2/2 123/7/2
f 141/29/4 142/7/4 143/2/4
f 141/29/4 143/2/4 144/3/4
f 145/52/1 146/53/1 147/54/1
f 145/52/1 147/54/1 148/55/1
f 149/3/3 150/2/3 151/19/3
f 149/3/3 151/19/3 152/47/3
f 124/2/2 140/10/2 153/18/2
f 124/2/2 153/18/2 154/19/2
f 125/3/2 124/2/2 154/19/2
f 125/3/2 154/19/2 155/47/2
f 156/56/1 157/57/1 158/58/1
f 156/56/1 158/58/1 159/59/1
f 160/36/1 161/37/1 162/50/1
f 160/36/1 162/50/1 163/39/1
f 164/8/3 136/10/3 135/2/3
f 164/8/3 135/2/3 165/7/3
f 166/7/3 150/2/3 149/3/3
f 166/7/3 149/3/3 167/29/3
f 168/10/4 169/18/4 170/19/4
f 168/10/4 170/19/4 171/2/4
f 172/36/4 173/41/4 174/42/4
f 172/36/4 174/42/4 175/51/4
f 176/7/4 177/2/4 178/3/4
f 176/7/4 178/3/4 179/29/4
f 180/42/3 181/60/3 182/61/3
f 180/42/3 182/61/3 183/19/3
f 184/7/1 185/8/1 186/10/1
f 184/7/1 186/10/1 187/2/1
f 188/2/2 189/10/2 190/18/2
f 188/2/2 190/18/2 191/19/2
f 192/8/4 193/10/4 177/2/4
f 192/8/4 177/2/4 176/7/4
f 194/29/1 195/7/1 196/2/1
f 194/29/1 196/2/1 197/3/1
f 198/52/3 199/53/3 200/54/3
f 198/52/3 200/54/3 201/55/3
f 202/3/2 203/2/2 204/19/2
f 202/3/2 204/19/2 205/47/2
f 177/2/4 193/10/4 206/18/4
f 177/2/4 206/18/4 207/19/4
f 178/3/4 177/2/4 207/19/4
f 178/3/4 207/19/4 208/47/4
f 209/56/3 210/57/3 211/58/3
f 209/56/3 211/58/3 212/59/3
f 213/62/3 214/63/3 215/64/3
f 213/62/3 215/64/3 216/65/3
f 217/8/2 189/10/2 188/2/2
f 217/8/2 188/2/2 218/7/2
f 219/7/2 203/2/2 202/3/2
f 219/7/2 202/3/2 220/29/2
f 221/10/1 222/18/1 223/19/1
f 221/10/1 223/19/1 224/2/1
f 225/36/1 226/41/1 227/42/1
f 225/36/1 227/42/1 228/51/1
f 229/8/1 230/10/1 231/2/1
f 229/8/1 231/2/1 232/1/1
f 233/29/3 234/7/3 235/2/3
f 233/29/3 235/2/3 236/30/3
f 237/31/2 238/32/2 239/33/2
f 237/31/2 239/33/2 240/34/2
f 241/3/4 242/2/4 243/19/4
f 241/3/4 243/19/4 244/35/4
f 231/2/1 230/10/1 245/18/1
f 231/2/1 245/18/1 246/12/1
f 247/36/2 248/37/2 249/38/2
f 247/36/2 249/38/2 250/39/2
f 251/7/4 242/2/4 241/3/4
f 251/7/4 241/3/4 252/40/4
f 253/36/3 254/41/3 255/42/3
f 253/36/3 255/42/3 256/43/3
f 257/7/3 258/2/3 259/3/3
f 257/7/3 259/3/3 260/29/3
f 261/44/4 262/5/4 263/6/4
f 261/44/4 263/6/4 264/45/4
f 265/7/2 266/8/2 267/10/2
f 265/7/2 267/10/2 268/2/2
f 269/2/1 270/10/1 271/18/1
f 269/2/1 271/18/1 272/19/1
f 273/8/3 274/10/3 258/2/3
f 273/8/3 258/2/3 257/7/3
f 275/29/2 276/7/2 277/2/2
f 275/29/2 277/2/2 278/3/2
f 279/46/4 280/32/4 281/33/4
f 279/46/4 281/33/4 282/34/4
f 283/3/1 284/2/1 285/19/1
f 283/3/1 285/19/1 286/47/1
f 258/2/3 274/10/3 287/18/3
f 258/2/3 287/18/3 288/19/3
f 259/3/3 258/2/3 288/19/3
f 259/3/3 288/19/3 289/47/3
f 290/13/4 291/14/4 292/48/4
f 290/13/4 292/48/4 293/49/4
f 294/36/4 295/37/4 296/50/4
f 294/36/4 296/50/4 297/39/4
f 298/8/1 270/10/1 269/2/1
f 298/8/1 269/2/1 299/7/1
f 300/7/1 284/2/1 283/3/1
f 300/7/1 283/3/1 301/29/1
f 302/10/2 303/18/2 304/19/2
f 302/10/2 304/19/2 305/2/2
f 306/36/2 307/41/2 308/42/2
f 306/36/2 308/42/2 309/51/2
f 310/7/2 311/2/2 312/3/2
f 310/7/2 312/3/2 313/29/2
f 314/44/1 315/5/1 316/6/1
f 314/44/1 316/6/1 317/45/1
f 318/7/4 319/8/4 320/10/4
f 318/7/4 320/10/4 321/2/4
f 322/2/3 323/10/3 324/18/3
f 322/2/3 324/18/3 325/19/3
f 312/3/2 311/2/2 326/19/2
f 312/3/2 326/19/2 327/47/2
f 328/56/1 329/57/1 330/58/1
f 328/56/1 330/58/1 331/59/1
f 332/8/3 323/10/3 322/2/3
f 332/8/3 322/2/3 333/7/3
f 334/10/4 335/18/4 336/19/4
f 334/10/4 336/19/4 337/2/4
